<svg width="40" height="40" viewBox="0 0 40 40" fill="none" xmlns="http://www.w3.org/2000/svg">
<g clip-path="url(#clip0_27_317)">
<path d="M20 18.3333C21.3186 18.3333 22.6075 17.9423 23.7038 17.2098C24.8002 16.4773 25.6547 15.4361 26.1592 14.2179C26.6638 12.9997 26.7958 11.6593 26.5386 10.3661C26.2814 9.07286 25.6464 7.88497 24.7141 6.95262C23.7817 6.02027 22.5939 5.38534 21.3006 5.1281C20.0074 4.87087 18.667 5.00289 17.4488 5.50747C16.2306 6.01206 15.1895 6.86654 14.4569 7.96287C13.7244 9.0592 13.3334 10.3481 13.3334 11.6667C13.3334 13.4348 14.0358 15.1305 15.286 16.3807C16.5362 17.631 18.2319 18.3333 20 18.3333ZM20 8.33334C20.6593 8.33334 21.3038 8.52883 21.8519 8.8951C22.4001 9.26138 22.8273 9.78197 23.0796 10.3911C23.3319 11.0001 23.3979 11.6704 23.2693 12.317C23.1407 12.9636 22.8232 13.5575 22.3571 14.0237C21.8909 14.4899 21.2969 14.8073 20.6503 14.936C20.0037 15.0646 19.3335 14.9986 18.7244 14.7463C18.1153 14.494 17.5947 14.0667 17.2285 13.5186C16.8622 12.9704 16.6667 12.3259 16.6667 11.6667C16.6667 10.7826 17.0179 9.93477 17.643 9.30965C18.2681 8.68453 19.116 8.33334 20 8.33334Z" fill="black"/>
<path d="M20 21.6667C16.9058 21.6667 13.9384 22.8959 11.7505 25.0838C9.56254 27.2718 8.33337 30.2392 8.33337 33.3334C8.33337 33.7754 8.50897 34.1994 8.82153 34.5119C9.13409 34.8245 9.55801 35.0001 10 35.0001C10.4421 35.0001 10.866 34.8245 11.1786 34.5119C11.4911 34.1994 11.6667 33.7754 11.6667 33.3334C11.6667 31.1233 12.5447 29.0037 14.1075 27.4409C15.6703 25.8781 17.7899 25.0001 20 25.0001C22.2102 25.0001 24.3298 25.8781 25.8926 27.4409C27.4554 29.0037 28.3334 31.1233 28.3334 33.3334C28.3334 33.7754 28.509 34.1994 28.8215 34.5119C29.1341 34.8245 29.558 35.0001 30 35.0001C30.4421 35.0001 30.866 34.8245 31.1786 34.5119C31.4911 34.1994 31.6667 33.7754 31.6667 33.3334C31.6667 30.2392 30.4375 27.2718 28.2496 25.0838C26.0617 22.8959 23.0942 21.6667 20 21.6667Z" fill="black"/>
</g>
<defs>
<clipPath id="clip0_27_317">
<rect width="40" height="40" fill="white"/>
</clipPath>
</defs>
</svg>
